<svg xmlns="http://www.w3.org/2000/svg" viewBox="0 0 180 180" role="img" aria-labelledby="title">
  <title>Terry Student Consulting logo</title>
  <circle cx="90" cy="90" r="88" fill="none" stroke="#d9d9d9" stroke-width="2"/>
  <path
    d="M42 124
       C28 106, 24 86, 33 67
       C38 56, 49 45, 53 32
       C55 27, 55 22, 53 18
       C63 25, 67 36, 64 47
       C60 61, 46 74, 41 87
       C37 97, 38 109, 45 120
       C56 107, 64 95, 66 83
       C69 70, 64 59, 56 49"
    fill="none"
    stroke="#c8102e"
    stroke-width="4"
    stroke-linecap="round"
    stroke-linejoin="round"
  />
  <path
    d="M44 123
       C47 106, 56 90, 69 77"
    fill="none"
    stroke="#c8102e"
    stroke-width="2.2"
    stroke-linecap="round"
  />
  <text
    x="78"
    y="99"
    font-size="50"
    font-family="Georgia, 'Times New Roman', serif"
    fill="#222222"
    letter-spacing="-1.5"
  >
    TSC
  </text>
</svg>
