<?xml version="1.0" encoding="iso-8859-1"?>
<!-- Generator: Adobe Illustrator 26.0.1, SVG Export Plug-In . SVG Version: 6.00 Build 0)  -->
<svg version="1.1" id="Layer_1" xmlns="http://www.w3.org/2000/svg" xmlns:xlink="http://www.w3.org/1999/xlink" x="0px" y="0px"
	 viewBox="0 0 500 500" style="enable-background:new 0 0 500 500;" xml:space="preserve">
<g id="watermark_1_">
	<g>
		<g id="watermark" style="opacity:0.61;">
			<g>
				<g>
					<g>
						<g>
							<polygon style="fill:#FFFFFF;" points="213.765,461.172 208.204,474.017 205.268,474.017 199.726,461.172 202.938,461.172 
								206.846,470.347 210.81,461.172 							"/>
						</g>
						<g>
							<path style="fill:#FFFFFF;" d="M223.507,469.741h-7.469c0.275,1.23,1.321,1.982,2.826,1.982c1.046,0,1.798-0.312,2.477-0.954
								l1.523,1.651c-0.917,1.046-2.294,1.597-4.074,1.597c-3.413,0-5.634-2.147-5.634-5.083c0-2.954,2.257-5.083,5.267-5.083
								c2.899,0,5.138,1.945,5.138,5.12C223.562,469.191,223.526,469.503,223.507,469.741 M216.002,468.071h4.863
								c-0.202-1.248-1.138-2.055-2.422-2.055C217.139,466.016,216.204,466.805,216.002,468.071"/>
						</g>
						<g>
							<path style="fill:#FFFFFF;" d="M224.735,468.934c0-2.973,2.294-5.083,5.505-5.083c2.074,0,3.707,0.899,4.423,2.514
								l-2.22,1.193c-0.532-0.936-1.321-1.358-2.221-1.358c-1.45,0-2.587,1.009-2.587,2.734c0,1.725,1.138,2.734,2.587,2.734
								c0.899,0,1.688-0.404,2.221-1.358l2.22,1.211c-0.716,1.578-2.349,2.495-4.423,2.495
								C227.029,474.017,224.735,471.907,224.735,468.934"/>
						</g>
						<g>
							<path style="fill:#FFFFFF;" d="M242.828,473.393c-0.587,0.422-1.45,0.624-2.331,0.624c-2.33,0-3.688-1.193-3.688-3.542
								v-4.055h-1.523v-2.202h1.523v-2.404h2.863v2.404h2.459v2.202h-2.459v4.019c0,0.844,0.458,1.303,1.229,1.303
								c0.422,0,0.844-0.128,1.156-0.367L242.828,473.393z"/>
						</g>
					</g>
					<g>
						<path style="fill:#FFFFFF;" d="M262.474,463.997v2.643c-0.238-0.018-0.422-0.037-0.642-0.037
							c-1.578,0-2.624,0.862-2.624,2.753v4.661h-2.863v-9.873h2.734v1.303C259.776,464.493,260.951,463.997,262.474,463.997"/>
					</g>
					<g>
						<path style="fill:#FFFFFF;" d="M263.299,472.53l1.009-2.239c1.083,0.789,2.697,1.339,4.239,1.339
							c1.762,0,2.477-0.587,2.477-1.376c0-2.404-7.469-0.752-7.469-5.524c0-2.184,1.762-4,5.413-4c1.615,0,3.267,0.385,4.459,1.138
							l-0.918,2.257c-1.193-0.679-2.422-1.009-3.56-1.009c-1.761,0-2.44,0.66-2.44,1.468c0,2.367,7.468,0.734,7.468,5.45
							c0,2.147-1.78,3.982-5.45,3.982C266.492,474.017,264.437,473.411,263.299,472.53"/>
					</g>
					<g>
						<path style="fill:#FFFFFF;" d="M285.428,469.741h-7.469c0.275,1.23,1.321,1.982,2.826,1.982c1.046,0,1.798-0.312,2.477-0.954
							l1.523,1.651c-0.918,1.046-2.294,1.597-4.074,1.597c-3.413,0-5.634-2.147-5.634-5.083c0-2.954,2.257-5.083,5.267-5.083
							c2.9,0,5.138,1.945,5.138,5.12C285.484,469.191,285.447,469.503,285.428,469.741 M277.923,468.071h4.863
							c-0.202-1.248-1.138-2.055-2.422-2.055C279.061,466.016,278.125,466.805,277.923,468.071"/>
					</g>
					<g>
						<path style="fill:#FFFFFF;" d="M297.007,469.741h-7.469c0.275,1.23,1.321,1.982,2.826,1.982c1.046,0,1.798-0.312,2.477-0.954
							l1.523,1.651c-0.918,1.046-2.294,1.597-4.074,1.597c-3.413,0-5.634-2.147-5.634-5.083c0-2.954,2.257-5.083,5.267-5.083
							c2.899,0,5.138,1.945,5.138,5.12C297.062,469.191,297.025,469.503,297.007,469.741 M289.501,468.071h4.863
							c-0.202-1.248-1.138-2.055-2.422-2.055C290.639,466.016,289.703,466.805,289.501,468.071"/>
					</g>
					<g>
						<polygon style="fill:#FFFFFF;" points="303.208,470.145 301.831,471.503 301.831,474.017 298.969,474.017 298.969,460.401 
							301.831,460.401 301.831,468.108 306.016,464.144 309.429,464.144 305.318,468.328 309.796,474.017 306.327,474.017 						"/>
					</g>
					<g>
						<path style="fill:#FFFFFF;" d="M256.601,475.359L256.601,475.359l-2.86-2.86c-0.435,0.508-0.953,0.943-1.534,1.284
							c-0.092,0.069-0.186,0.136-0.283,0.199l3.027,3.027c0.456,0.456,1.195,0.456,1.65,0
							C257.057,476.554,257.057,475.815,256.601,475.359"/>
					</g>
					<g>
						<path style="fill:#FFFFFF;" d="M249.984,463.244c0.221-0.173,0.495-0.281,0.797-0.281c0.042,0,0.083,0.002,0.124,0.006
							c-0.214-0.156-0.478-0.249-0.764-0.249c-0.395,0-0.744,0.18-0.981,0.458c-0.051,0-0.1,0.006-0.151,0.008
							c0.039-0.077,0.064-0.162,0.064-0.255c0-0.234-0.143-0.434-0.346-0.519c0.087,0.126,0.138,0.279,0.138,0.445
							c0,0.122-0.031,0.237-0.081,0.341c-2.811,0.201-5.03,2.539-5.03,5.4c0,2.993,2.426,5.42,5.42,5.42
							c2.993,0,5.42-2.426,5.42-5.42C254.595,465.879,252.593,463.635,249.984,463.244 M247.983,464.656
							c0.435,0,0.844,0.112,1.199,0.309c0.374-0.245,0.82-0.387,1.299-0.387c0.711,0,1.348,0.312,1.784,0.806
							c-0.435-0.379-1.004-0.61-1.627-0.61c-0.449,0-0.87,0.12-1.234,0.329c-0.079,0.046-0.156,0.096-0.229,0.15
							c-0.065-0.048-0.133-0.093-0.204-0.134c-0.369-0.219-0.8-0.344-1.26-0.344c-0.3,0-0.588,0.054-0.854,0.152
							C247.196,464.754,247.578,464.656,247.983,464.656 M251.772,469.098c0.115,0.305,0.181,0.634,0.181,0.979
							c0,1.534-1.244,2.777-2.778,2.777c-1.534,0-2.777-1.243-2.777-2.777c0-0.345,0.066-0.674,0.181-0.979
							c-0.62-0.382-1.035-1.064-1.035-1.846c0-1.197,0.971-2.168,2.168-2.168c0.565,0,1.078,0.218,1.463,0.572
							c0.386-0.354,0.899-0.572,1.464-0.572c1.197,0,2.168,0.971,2.168,2.168C252.807,468.034,252.392,468.716,251.772,469.098"/>
					</g>
					<g>
						<path style="fill:#FFFFFF;" d="M251.666,467.061c0,0.497-0.404,0.901-0.901,0.901c-0.497,0-0.901-0.404-0.901-0.901
							s0.404-0.901,0.901-0.901c0.101,0,0.197,0.017,0.287,0.047c-0.03,0.062-0.045,0.132-0.045,0.204
							c0,0.273,0.221,0.494,0.494,0.494c0.05,0,0.099-0.008,0.146-0.022C251.66,466.941,251.666,467,251.666,467.061"/>
					</g>
					<g>
						<path style="fill:#FFFFFF;" d="M248.255,467.061c0,0.376-0.305,0.681-0.681,0.681c-0.376,0-0.681-0.305-0.681-0.681
							s0.305-0.681,0.681-0.681c0.076,0,0.149,0.013,0.217,0.035c-0.023,0.047-0.034,0.1-0.034,0.155
							c0,0.206,0.167,0.374,0.374,0.374c0.038,0,0.075-0.006,0.11-0.017C248.25,466.97,248.255,467.015,248.255,467.061"/>
					</g>
					<g>
						<g>
							<g>
								<rect x="242.908" y="467.83" style="fill:#FFFFFF;" width="0.616" height="0.616"/>
							</g>
							<g>
								<rect x="254.827" y="467.83" style="fill:#FFFFFF;" width="0.616" height="0.616"/>
							</g>
							<g>
								<path style="fill:#FFFFFF;" d="M255.205,468.082h-0.14c0-3.248-2.642-5.89-5.89-5.89c-3.248,0-5.89,2.642-5.89,5.89h-0.14
									c0-1.611,0.627-3.125,1.766-4.264c1.139-1.139,2.653-1.766,4.264-1.766c1.611,0,3.125,0.627,4.264,1.766
									C254.578,464.957,255.205,466.471,255.205,468.082"/>
							</g>
						</g>
						<g>
							<rect x="248.868" y="461.814" style="fill:#FFFFFF;" width="0.616" height="0.616"/>
						</g>
						<g>
							<rect x="244.95" y="462.052" style="fill:#FFFFFF;" width="8.45" height="0.14"/>
						</g>
						<g>
							<path style="fill:#FFFFFF;" d="M245.174,462.15c0,0.108-0.088,0.196-0.196,0.196c-0.108,0-0.196-0.088-0.196-0.196
								c0-0.108,0.088-0.196,0.196-0.196C245.086,461.954,245.174,462.042,245.174,462.15"/>
						</g>
						<g>
							<path style="fill:#FFFFFF;" d="M253.596,462.15c0,0.108-0.088,0.196-0.196,0.196c-0.108,0-0.196-0.088-0.196-0.196
								c0-0.108,0.088-0.196,0.196-0.196C253.509,461.954,253.596,462.042,253.596,462.15"/>
						</g>
					</g>
				</g>
				<g>
					<path style="fill:#FFFFFF;" d="M314.356,473.409c0,1.559-2.364,1.559-2.364,0C311.993,471.851,314.356,471.851,314.356,473.409
						z"/>
				</g>
				<g>
					<g>
						<g>
							<path style="fill:#FFFFFF;" d="M161.739,466.549l1.772,6.088l1.855-6.088h2.215l-2.823,8.14h-2.33l-0.837-2.396l-0.722-2.708
								l-0.722,2.708l-0.837,2.396h-2.33l-2.839-8.14h2.231l1.855,6.088l1.756-6.088H161.739z"/>
						</g>
						<g>
							<path style="fill:#FFFFFF;" d="M176.713,466.549l1.772,6.088l1.855-6.088h2.215l-2.823,8.14h-2.33l-0.837-2.396l-0.722-2.708
								l-0.722,2.708l-0.837,2.396h-2.33l-2.839-8.14h2.231l1.855,6.088l1.756-6.088H176.713z"/>
						</g>
						<g>
							<path style="fill:#FFFFFF;" d="M191.687,466.549l1.772,6.088l1.855-6.088h2.215l-2.823,8.14h-2.33l-0.837-2.396l-0.722-2.708
								l-0.722,2.708l-0.837,2.396h-2.33l-2.839-8.14h2.231l1.855,6.088l1.756-6.088H191.687z"/>
						</g>
					</g>
					<g>
						<path style="fill:#FFFFFF;" d="M200.908,473.52c0,1.559-2.364,1.559-2.364,0C198.545,471.962,200.908,471.962,200.908,473.52z
							"/>
					</g>
					<g>
						<path style="fill:#FFFFFF;" d="M322.71,473.409c-0.935,0.919-1.919,1.28-3.117,1.28c-2.346,0-4.3-1.411-4.3-4.282
							s1.953-4.284,4.3-4.284c1.149,0,2.035,0.329,2.921,1.199l-1.264,1.329c-0.476-0.428-1.066-0.64-1.623-0.64
							c-1.346,0-2.33,0.985-2.33,2.396c0,1.542,1.05,2.362,2.297,2.362c0.64,0,1.28-0.18,1.772-0.672L322.71,473.409z"/>
					</g>
					<g>
						<path style="fill:#FFFFFF;" d="M331.805,470.472c0,2.33-1.591,4.217-4.217,4.217c-2.626,0-4.201-1.887-4.201-4.217
							c0-2.314,1.609-4.217,4.185-4.217C330.149,466.255,331.805,468.158,331.805,470.472z M325.389,470.472
							c0,1.231,0.739,2.38,2.199,2.38c1.46,0,2.199-1.149,2.199-2.38c0-1.215-0.854-2.396-2.199-2.396
							C326.144,468.077,325.389,469.258,325.389,470.472z"/>
					</g>
					<g>
						<path style="fill:#FFFFFF;" d="M338.572,474.689v-4.332c0-1.068-0.559-2.035-1.658-2.035c-1.082,0-1.722,0.967-1.722,2.035
							v4.332h-2.003v-8.107h1.855l0.148,0.985c0.426-0.82,1.362-1.116,2.133-1.116c0.969,0,1.937,0.394,2.396,1.51
							c0.723-1.149,1.658-1.478,2.708-1.478c2.297,0,3.43,1.412,3.43,3.84v4.365h-2.003v-4.365c0-1.066-0.442-1.97-1.526-1.97
							c-1.082,0-1.756,0.935-1.756,2.003v4.332H338.572z"/>
					</g>
				</g>
			</g>
		</g>
		<g style="opacity:0.61;">
			<g>
				<g>
					<path style="fill:#FFFFFF;" d="M345.988,431.299c-0.006-1.224-0.959-2.121-2.189-2.14c-0.924-0.014-0.832,0.12-0.834-0.867
						c-0.003-1.097-0.007-2.194,0.003-3.292c0.003-0.379-0.112-0.691-0.362-0.976c-2.342-2.668-4.678-5.342-7.019-8.011
						c-0.12-0.137-0.275-0.244-0.414-0.366c-6.214,0-12.427,0-18.641,0c-0.794,0.293-1.14,0.868-1.138,1.709
						c0.01,3.748,0.004,7.496,0.004,11.243c0,0.556-0.003,0.589-0.55,0.551c-1.497-0.102-2.516,0.986-2.497,2.492
						c0.044,3.476,0.013,6.953,0.014,10.429c0.001,1.58,0.867,2.443,2.45,2.449c0.582,0.002,0.582,0.002,0.582,0.6
						c0,2.219-0.001,4.438,0.001,6.657c0.001,1.192,0.58,1.771,1.768,1.771c8.013,0.001,16.027,0.001,24.04,0
						c1.168,0,1.755-0.583,1.757-1.745c0.002-2.256,0-4.512,0.001-6.768c0-0.512,0.002-0.511,0.52-0.515
						c0.271-0.002,0.541,0.008,0.809-0.058c0.996-0.246,1.69-1.044,1.694-2.069C346.003,438.696,346.005,434.997,345.988,431.299z
						 M317.537,417.162c5.337,0,10.674,0,16.01,0c0.548,0,0.554,0.007,0.554,0.561c0.001,2.243-0.001,4.486,0.001,6.73
						c0.001,0.811,0.249,1.059,1.06,1.059c1.91,0.001,3.821,0,5.731,0.001c0.458,0,0.479,0.021,0.481,0.483
						c0.003,0.887,0.002,1.775,0,2.662c-0.001,0.477-0.024,0.498-0.504,0.499c-3.895,0.001-7.79,0-11.684,0
						c-3.882,0-7.765,0-11.647,0c-0.55,0-0.552-0.001-0.552-0.561c-0.001-3.624-0.001-7.247,0-10.871
						C316.987,417.166,316.991,417.162,317.537,417.162z M340.822,451.579c-3.883,0.001-7.766,0-11.65,0c-3.871,0-7.742,0-11.613,0
						c-0.572,0-0.574-0.002-0.574-0.579c-0.001-1.997-0.001-3.994,0.001-5.991c0-0.464,0.023-0.486,0.478-0.487
						c7.803-0.001,15.607-0.001,23.41,0c0.478,0,0.499,0.02,0.499,0.503c0.002,1.997,0.001,3.994,0,5.991
						C341.375,451.574,341.37,451.579,340.822,451.579z"/>
				</g>
				<g>
					<g>
						<rect x="327.418" y="417.053" style="fill:#FFFFFF;" width="1.757" height="1.054"/>
					</g>
					<g>
						<rect x="325.662" y="418.107" style="fill:#FFFFFF;" width="1.757" height="1.054"/>
					</g>
					<g>
						<rect x="327.418" y="419.161" style="fill:#FFFFFF;" width="1.757" height="1.054"/>
					</g>
					<g>
						<rect x="325.662" y="420.215" style="fill:#FFFFFF;" width="1.757" height="1.054"/>
					</g>
					<g>
						<rect x="327.418" y="421.269" style="fill:#FFFFFF;" width="1.757" height="1.054"/>
					</g>
					<g>
						<rect x="325.662" y="422.323" style="fill:#FFFFFF;" width="1.757" height="1.054"/>
					</g>
					<g>
						<rect x="327.418" y="423.378" style="fill:#FFFFFF;" width="1.757" height="1.054"/>
					</g>
					<g>
						<rect x="325.662" y="424.432" style="fill:#FFFFFF;" width="1.757" height="1.054"/>
					</g>
					<g>
						<rect x="327.418" y="425.486" style="fill:#FFFFFF;" width="1.757" height="1.054"/>
					</g>
					<g>
						<rect x="325.662" y="426.54" style="fill:#FFFFFF;" width="1.757" height="1.054"/>
					</g>
					<g>
						<rect x="327.418" y="427.594" style="fill:#FFFFFF;" width="1.757" height="1.054"/>
					</g>
					<g>
						<rect x="325.662" y="428.648" style="fill:#FFFFFF;" width="1.757" height="1.054"/>
					</g>
				</g>
			</g>
			<g>
				<path style="fill:#FFFFFF;" d="M187.637,431.299c-0.006-1.224-0.959-2.121-2.189-2.14c-0.924-0.014-0.832,0.12-0.834-0.867
					c-0.003-1.097-0.007-2.194,0.003-3.292c0.003-0.379-0.112-0.691-0.362-0.976c-2.342-2.668-4.678-5.342-7.019-8.011
					c-0.12-0.137-0.275-0.244-0.414-0.366c-6.214,0-12.427,0-18.641,0c-0.794,0.293-1.14,0.868-1.138,1.709
					c0.01,3.748,0.004,7.496,0.004,11.243c0,0.556-0.003,0.589-0.55,0.551c-1.497-0.102-2.516,0.986-2.497,2.492
					c0.044,3.476,0.013,6.953,0.014,10.429c0.001,1.58,0.867,2.443,2.45,2.449c0.582,0.002,0.582,0.002,0.582,0.6
					c0,2.219-0.001,4.438,0.001,6.657c0.001,1.192,0.58,1.771,1.768,1.771c8.013,0.001,16.027,0.001,24.04,0
					c1.168,0,1.755-0.583,1.757-1.745c0.002-2.256,0-4.512,0.001-6.768c0-0.512,0.002-0.511,0.52-0.515
					c0.271-0.002,0.541,0.008,0.809-0.058c0.996-0.246,1.69-1.044,1.694-2.069C187.652,438.696,187.655,434.997,187.637,431.299z
					 M159.187,417.162c5.337,0,10.674,0,16.01,0c0.548,0,0.554,0.007,0.554,0.561c0.001,2.243-0.001,4.486,0.001,6.73
					c0.001,0.811,0.249,1.059,1.06,1.059c1.91,0.001,3.821,0,5.731,0.001c0.458,0,0.479,0.021,0.481,0.483
					c0.003,0.887,0.002,1.775,0,2.662c-0.001,0.477-0.024,0.498-0.504,0.499c-3.895,0.001-7.79,0-11.684,0
					c-3.882,0-7.765,0-11.647,0c-0.55,0-0.552-0.001-0.552-0.561c-0.001-3.624-0.001-7.247,0-10.871
					C158.636,417.166,158.64,417.162,159.187,417.162z M182.472,451.579c-3.883,0.001-7.766,0-11.65,0c-3.871,0-7.742,0-11.613,0
					c-0.572,0-0.574-0.002-0.574-0.579c-0.001-1.997-0.001-3.994,0.001-5.991c0-0.464,0.023-0.486,0.478-0.487
					c7.803-0.001,15.607-0.001,23.41,0c0.478,0,0.499,0.02,0.499,0.503c0.002,1.997,0.001,3.994,0,5.991
					C183.024,451.574,183.019,451.579,182.472,451.579z"/>
			</g>
			<g>
				<path style="fill:#FFFFFF;" d="M159.779,440.669v-7.897h2.779c0.375,0,0.726,0.061,1.053,0.182
					c0.327,0.121,0.612,0.292,0.855,0.513c0.242,0.221,0.434,0.483,0.573,0.789c0.14,0.305,0.21,0.642,0.21,1.009
					c0,0.375-0.07,0.715-0.21,1.02c-0.14,0.305-0.331,0.568-0.573,0.789c-0.243,0.221-0.528,0.392-0.855,0.513
					c-0.327,0.121-0.678,0.182-1.053,0.182h-1.29v2.901H159.779z M162.58,436.356c0.39,0,0.684-0.111,0.882-0.331
					c0.199-0.22,0.298-0.474,0.298-0.761c0-0.14-0.024-0.276-0.072-0.408c-0.048-0.132-0.121-0.248-0.221-0.347
					c-0.099-0.099-0.223-0.178-0.37-0.237c-0.147-0.059-0.32-0.089-0.518-0.089h-1.312v2.173H162.58z"/>
				<path style="fill:#FFFFFF;" d="M166.308,432.771h1.731l3.177,5.294h0.088l-0.088-1.522v-3.772h1.478v7.897h-1.566l-3.353-5.592
					h-0.088l0.088,1.522v4.07h-1.467V432.771z"/>
				<path style="fill:#FFFFFF;" d="M177.922,436.334h3.872c0.022,0.089,0.04,0.195,0.055,0.32c0.014,0.125,0.022,0.25,0.022,0.375
					c0,0.507-0.077,0.985-0.231,1.434c-0.154,0.449-0.397,0.849-0.728,1.202c-0.353,0.375-0.776,0.666-1.268,0.871
					c-0.493,0.206-1.055,0.309-1.688,0.309c-0.574,0-1.114-0.103-1.622-0.309c-0.507-0.206-0.948-0.492-1.323-0.86
					c-0.375-0.367-0.673-0.803-0.894-1.307c-0.221-0.504-0.331-1.053-0.331-1.649c0-0.595,0.11-1.145,0.331-1.649
					c0.221-0.504,0.518-0.939,0.894-1.307c0.375-0.367,0.816-0.654,1.323-0.86c0.507-0.206,1.048-0.309,1.622-0.309
					c0.64,0,1.211,0.11,1.715,0.331c0.504,0.221,0.935,0.526,1.296,0.915l-1.025,1.004c-0.258-0.272-0.544-0.48-0.861-0.623
					c-0.316-0.143-0.695-0.215-1.136-0.215c-0.361,0-0.703,0.065-1.026,0.193c-0.324,0.129-0.607,0.311-0.85,0.546
					c-0.242,0.235-0.436,0.52-0.579,0.855c-0.143,0.335-0.215,0.708-0.215,1.119c0,0.412,0.072,0.785,0.215,1.12
					c0.143,0.335,0.338,0.62,0.584,0.855c0.246,0.235,0.531,0.418,0.855,0.546c0.323,0.129,0.669,0.193,1.037,0.193
					c0.419,0,0.773-0.061,1.064-0.182c0.29-0.121,0.538-0.278,0.744-0.469c0.148-0.132,0.275-0.3,0.381-0.502
					c0.106-0.202,0.189-0.428,0.248-0.678h-2.482V436.334z"/>
			</g>
			<g>
				<path style="fill:#FFFFFF;" d="M224.019,431.299c-0.006-1.224-0.959-2.121-2.189-2.14c-0.924-0.014-0.832,0.12-0.834-0.867
					c-0.003-1.097-0.007-2.194,0.003-3.292c0.003-0.379-0.112-0.691-0.362-0.976c-2.342-2.668-4.678-5.342-7.019-8.011
					c-0.12-0.137-0.275-0.244-0.414-0.366c-6.214,0-12.427,0-18.641,0c-0.794,0.293-1.14,0.868-1.138,1.709
					c0.01,3.748,0.004,7.496,0.004,11.243c0,0.556-0.003,0.589-0.55,0.551c-1.497-0.102-2.516,0.986-2.497,2.492
					c0.044,3.476,0.013,6.953,0.014,10.429c0.001,1.58,0.867,2.443,2.45,2.449c0.582,0.002,0.582,0.002,0.582,0.6
					c0,2.219-0.001,4.438,0.001,6.657c0.001,1.192,0.58,1.771,1.768,1.771c8.013,0.001,16.027,0.001,24.04,0
					c1.168,0,1.755-0.583,1.757-1.745c0.002-2.256,0-4.512,0.001-6.768c0-0.512,0.002-0.511,0.52-0.515
					c0.271-0.002,0.541,0.008,0.809-0.058c0.997-0.246,1.69-1.044,1.694-2.069C224.034,438.696,224.036,434.997,224.019,431.299z
					 M195.568,417.162c5.337,0,10.674,0,16.01,0c0.548,0,0.554,0.007,0.554,0.561c0.001,2.243-0.001,4.486,0.001,6.73
					c0.001,0.811,0.249,1.059,1.06,1.059c1.91,0.001,3.821,0,5.731,0.001c0.458,0,0.479,0.021,0.481,0.483
					c0.003,0.887,0.002,1.775,0,2.662c-0.001,0.477-0.024,0.498-0.504,0.499c-3.895,0.001-7.79,0-11.684,0
					c-3.882,0-7.765,0-11.647,0c-0.55,0-0.552-0.001-0.552-0.561c-0.001-3.624-0.001-7.247,0-10.871
					C195.018,417.166,195.022,417.162,195.568,417.162z M218.854,451.579c-3.883,0.001-7.766,0-11.65,0c-3.871,0-7.742,0-11.613,0
					c-0.572,0-0.574-0.002-0.574-0.579c-0.001-1.997-0.001-3.994,0.001-5.991c0-0.464,0.023-0.486,0.478-0.487
					c7.803-0.001,15.607-0.001,23.41,0c0.478,0,0.499,0.02,0.499,0.503c0.002,1.997,0.001,3.994,0,5.991
					C219.406,451.574,219.401,451.579,218.854,451.579z"/>
			</g>
			<g>
				<path style="fill:#FFFFFF;" d="M205.111,432.771h1.699l2.967,7.897h-1.644l-0.651-1.886h-3.044l-0.651,1.886h-1.643
					L205.111,432.771z M206.997,437.415l-0.706-1.974l-0.287-0.96h-0.088l-0.287,0.96l-0.706,1.974H206.997z"/>
				<path style="fill:#FFFFFF;" d="M211.331,434.536c-0.125,0-0.245-0.024-0.359-0.072c-0.114-0.048-0.213-0.114-0.298-0.199
					c-0.084-0.084-0.151-0.182-0.198-0.292c-0.048-0.11-0.072-0.232-0.072-0.364s0.024-0.254,0.072-0.364
					c0.048-0.11,0.114-0.208,0.198-0.292c0.084-0.084,0.184-0.151,0.298-0.198c0.114-0.048,0.233-0.072,0.359-0.072
					c0.257,0,0.478,0.09,0.662,0.27c0.184,0.181,0.276,0.399,0.276,0.656s-0.092,0.476-0.276,0.656
					C211.809,434.446,211.589,434.536,211.331,434.536z M210.615,440.669v-5.404h1.445v5.404H210.615z"/>
			</g>
			<g>
				<path style="fill:#FFFFFF;" d="M261.044,431.299c-0.006-1.224-0.959-2.121-2.189-2.14c-0.924-0.014-0.832,0.12-0.834-0.867
					c-0.003-1.097-0.007-2.194,0.003-3.292c0.003-0.379-0.112-0.691-0.362-0.976c-2.342-2.668-4.678-5.342-7.019-8.011
					c-0.12-0.137-0.275-0.244-0.414-0.366c-6.214,0-12.427,0-18.641,0c-0.794,0.293-1.14,0.868-1.138,1.709
					c0.01,3.748,0.004,7.496,0.004,11.243c0,0.556-0.003,0.589-0.55,0.551c-1.497-0.102-2.516,0.986-2.497,2.492
					c0.044,3.476,0.013,6.953,0.014,10.429c0.001,1.58,0.867,2.443,2.45,2.449c0.582,0.002,0.582,0.002,0.582,0.6
					c0,2.219-0.001,4.438,0.001,6.657c0.001,1.192,0.58,1.771,1.768,1.771c8.013,0.001,16.027,0.001,24.04,0
					c1.168,0,1.755-0.583,1.757-1.745c0.002-2.256,0-4.512,0.001-6.768c0-0.512,0.002-0.511,0.52-0.515
					c0.271-0.002,0.541,0.008,0.809-0.058c0.996-0.246,1.69-1.044,1.694-2.069C261.059,438.696,261.061,434.997,261.044,431.299z
					 M232.593,417.162c5.337,0,10.674,0,16.01,0c0.548,0,0.554,0.007,0.554,0.561c0.001,2.243-0.001,4.486,0.001,6.73
					c0.001,0.811,0.249,1.059,1.06,1.059c1.91,0.001,3.821,0,5.731,0.001c0.458,0,0.479,0.021,0.481,0.483
					c0.003,0.887,0.002,1.775,0,2.662c-0.001,0.477-0.024,0.498-0.504,0.499c-3.895,0.001-7.79,0-11.684,0
					c-3.882,0-7.765,0-11.647,0c-0.55,0-0.552-0.001-0.552-0.561c-0.001-3.624-0.001-7.247,0-10.871
					C232.042,417.166,232.047,417.162,232.593,417.162z M255.878,451.579c-3.883,0.001-7.766,0-11.65,0c-3.871,0-7.742,0-11.613,0
					c-0.572,0-0.574-0.002-0.574-0.579c-0.001-1.997-0.001-3.994,0.001-5.991c0-0.464,0.023-0.486,0.478-0.487
					c7.803-0.001,15.607-0.001,23.41,0c0.478,0,0.499,0.02,0.499,0.503c0.002,1.997,0.001,3.994,0,5.991
					C256.431,451.574,256.426,451.579,255.878,451.579z"/>
			</g>
			<g>
				<path style="fill:#FFFFFF;" d="M236.361,440.845c-0.338,0-0.662-0.048-0.971-0.143c-0.309-0.095-0.592-0.239-0.849-0.43
					c-0.257-0.191-0.481-0.425-0.673-0.7c-0.191-0.276-0.342-0.597-0.452-0.965l1.401-0.551c0.103,0.397,0.283,0.726,0.54,0.987
					c0.257,0.261,0.596,0.392,1.015,0.392c0.154,0,0.303-0.02,0.447-0.061c0.143-0.04,0.272-0.099,0.386-0.176
					s0.204-0.175,0.27-0.292c0.066-0.118,0.099-0.254,0.099-0.408c0-0.147-0.026-0.279-0.077-0.397
					c-0.051-0.117-0.138-0.227-0.259-0.331c-0.121-0.103-0.28-0.202-0.475-0.298c-0.195-0.095-0.435-0.195-0.722-0.298l-0.485-0.176
					c-0.213-0.073-0.429-0.173-0.645-0.298c-0.217-0.125-0.413-0.276-0.59-0.452c-0.177-0.176-0.322-0.384-0.436-0.623
					c-0.114-0.239-0.171-0.509-0.171-0.81c0-0.309,0.06-0.597,0.182-0.866c0.121-0.268,0.294-0.503,0.518-0.706
					c0.224-0.202,0.492-0.36,0.805-0.474s0.66-0.171,1.042-0.171c0.397,0,0.74,0.053,1.031,0.16
					c0.291,0.107,0.537,0.243,0.739,0.408c0.202,0.165,0.366,0.348,0.491,0.546c0.125,0.199,0.217,0.386,0.276,0.563l-1.312,0.551
					c-0.074-0.221-0.208-0.419-0.402-0.596c-0.195-0.176-0.462-0.265-0.8-0.265c-0.324,0-0.592,0.075-0.805,0.226
					c-0.213,0.151-0.32,0.348-0.32,0.59c0,0.235,0.103,0.436,0.309,0.601c0.206,0.165,0.533,0.325,0.982,0.48l0.497,0.165
					c0.316,0.111,0.605,0.237,0.866,0.381c0.261,0.143,0.485,0.314,0.673,0.513c0.187,0.199,0.331,0.425,0.43,0.678
					c0.1,0.254,0.149,0.546,0.149,0.877c0,0.412-0.083,0.767-0.248,1.064c-0.165,0.298-0.377,0.542-0.634,0.734
					c-0.258,0.191-0.548,0.335-0.872,0.43C236.986,440.797,236.67,440.845,236.361,440.845z"/>
				<path style="fill:#FFFFFF;" d="M239.516,432.771h1.61l1.633,4.754l0.287,1.015h0.088l0.309-1.015l1.699-4.754h1.61l-2.879,7.897
					h-1.566L239.516,432.771z"/>
				<path style="fill:#FFFFFF;" d="M251.097,436.334h3.871c0.022,0.089,0.04,0.195,0.055,0.32c0.015,0.125,0.023,0.25,0.023,0.375
					c0,0.507-0.078,0.985-0.232,1.434c-0.154,0.449-0.397,0.849-0.728,1.202c-0.353,0.375-0.775,0.666-1.268,0.871
					c-0.493,0.206-1.055,0.309-1.688,0.309c-0.574,0-1.114-0.103-1.621-0.309c-0.507-0.206-0.949-0.492-1.324-0.86
					c-0.375-0.367-0.673-0.803-0.894-1.307c-0.22-0.504-0.331-1.053-0.331-1.649c0-0.595,0.11-1.145,0.331-1.649
					c0.221-0.504,0.518-0.939,0.894-1.307c0.375-0.367,0.816-0.654,1.324-0.86c0.507-0.206,1.047-0.309,1.621-0.309
					c0.64,0,1.211,0.11,1.715,0.331c0.504,0.221,0.936,0.526,1.296,0.915l-1.026,1.004c-0.257-0.272-0.544-0.48-0.861-0.623
					c-0.316-0.143-0.694-0.215-1.136-0.215c-0.36,0-0.702,0.065-1.026,0.193c-0.323,0.129-0.607,0.311-0.849,0.546
					c-0.243,0.235-0.436,0.52-0.579,0.855c-0.143,0.335-0.215,0.708-0.215,1.119c0,0.412,0.072,0.785,0.215,1.12
					c0.143,0.335,0.338,0.62,0.585,0.855c0.246,0.235,0.531,0.418,0.854,0.546c0.324,0.129,0.669,0.193,1.037,0.193
					c0.419,0,0.774-0.061,1.064-0.182c0.29-0.121,0.539-0.278,0.745-0.469c0.147-0.132,0.274-0.3,0.38-0.502
					c0.107-0.202,0.189-0.428,0.248-0.678h-2.482V436.334z"/>
			</g>
			<g>
				<path style="fill:#FFFFFF;" d="M297.3,431.299c-0.006-1.224-0.959-2.121-2.189-2.14c-0.924-0.014-0.832,0.12-0.834-0.867
					c-0.003-1.097-0.007-2.194,0.003-3.292c0.003-0.379-0.112-0.691-0.362-0.976c-2.342-2.668-4.678-5.342-7.019-8.011
					c-0.12-0.137-0.275-0.244-0.414-0.366c-6.214,0-12.427,0-18.641,0c-0.794,0.293-1.14,0.868-1.138,1.709
					c0.01,3.748,0.004,7.496,0.004,11.243c0,0.556-0.003,0.589-0.55,0.551c-1.497-0.102-2.516,0.986-2.497,2.492
					c0.044,3.476,0.013,6.953,0.014,10.429c0.001,1.58,0.867,2.443,2.45,2.449c0.582,0.002,0.582,0.002,0.582,0.6
					c0,2.219-0.001,4.438,0.001,6.657c0.001,1.192,0.58,1.771,1.768,1.771c8.013,0.001,16.027,0.001,24.04,0
					c1.168,0,1.755-0.583,1.757-1.745c0.002-2.256,0-4.512,0.001-6.768c0-0.512,0.002-0.511,0.52-0.515
					c0.271-0.002,0.541,0.008,0.809-0.058c0.996-0.246,1.69-1.044,1.694-2.069C297.315,438.696,297.318,434.997,297.3,431.299z
					 M268.85,417.162c5.337,0,10.674,0,16.01,0c0.548,0,0.554,0.007,0.554,0.561c0.001,2.243-0.001,4.486,0.001,6.73
					c0.001,0.811,0.249,1.059,1.06,1.059c1.91,0.001,3.821,0,5.731,0.001c0.458,0,0.479,0.021,0.481,0.483
					c0.003,0.887,0.002,1.775,0,2.662c-0.001,0.477-0.024,0.498-0.504,0.499c-3.895,0.001-7.79,0-11.684,0
					c-3.882,0-7.765,0-11.647,0c-0.55,0-0.552-0.001-0.552-0.561c-0.001-3.624-0.001-7.247,0-10.871
					C268.299,417.166,268.303,417.162,268.85,417.162z M292.135,451.579c-3.883,0.001-7.766,0-11.65,0c-3.871,0-7.742,0-11.613,0
					c-0.572,0-0.574-0.002-0.574-0.579c-0.001-1.997-0.001-3.994,0.001-5.991c0-0.464,0.023-0.486,0.478-0.487
					c7.803-0.001,15.607-0.001,23.41,0c0.478,0,0.499,0.02,0.499,0.503c0.001,1.997,0.001,3.994,0,5.991
					C292.687,451.574,292.682,451.579,292.135,451.579z"/>
			</g>
			<g>
				<path style="fill:#FFFFFF;" d="M272.966,434.183v1.831h3.165v1.412h-3.165v1.831h3.518v1.412h-5.007v-7.897h5.007v1.412H272.966
					z"/>
				<path style="fill:#FFFFFF;" d="M277.852,440.669v-7.897h2.779c0.375,0,0.726,0.061,1.053,0.182
					c0.327,0.121,0.612,0.292,0.855,0.513c0.243,0.221,0.434,0.483,0.574,0.789c0.14,0.305,0.209,0.642,0.209,1.009
					c0,0.375-0.07,0.715-0.209,1.02c-0.14,0.305-0.331,0.568-0.574,0.789c-0.243,0.221-0.528,0.392-0.855,0.513
					c-0.327,0.121-0.678,0.182-1.053,0.182h-1.29v2.901H277.852z M280.653,436.356c0.389,0,0.684-0.111,0.882-0.331
					c0.199-0.22,0.298-0.474,0.298-0.761c0-0.14-0.024-0.276-0.072-0.408c-0.048-0.132-0.121-0.248-0.221-0.347
					c-0.099-0.099-0.222-0.178-0.37-0.237c-0.147-0.059-0.32-0.089-0.518-0.089h-1.312v2.173H280.653z"/>
				<path style="fill:#FFFFFF;" d="M286.797,440.845c-0.338,0-0.662-0.048-0.971-0.143c-0.309-0.095-0.592-0.239-0.849-0.43
					c-0.257-0.191-0.482-0.425-0.673-0.7c-0.191-0.276-0.342-0.597-0.452-0.965l1.401-0.551c0.103,0.397,0.283,0.726,0.541,0.987
					c0.257,0.261,0.595,0.392,1.015,0.392c0.154,0,0.303-0.02,0.447-0.061c0.143-0.04,0.272-0.099,0.386-0.176
					c0.114-0.077,0.204-0.175,0.27-0.292c0.066-0.118,0.1-0.254,0.1-0.408c0-0.147-0.026-0.279-0.077-0.397
					c-0.051-0.117-0.138-0.227-0.259-0.331c-0.121-0.103-0.279-0.202-0.474-0.298c-0.195-0.095-0.436-0.195-0.723-0.298
					l-0.485-0.176c-0.213-0.073-0.428-0.173-0.645-0.298c-0.217-0.125-0.414-0.276-0.59-0.452c-0.176-0.176-0.322-0.384-0.436-0.623
					c-0.114-0.239-0.171-0.509-0.171-0.81c0-0.309,0.061-0.597,0.182-0.866c0.121-0.268,0.294-0.503,0.518-0.706
					c0.224-0.202,0.493-0.36,0.805-0.474c0.312-0.114,0.66-0.171,1.042-0.171c0.397,0,0.741,0.053,1.031,0.16
					c0.29,0.107,0.537,0.243,0.739,0.408c0.202,0.165,0.365,0.348,0.491,0.546c0.125,0.199,0.217,0.386,0.276,0.563l-1.312,0.551
					c-0.074-0.221-0.208-0.419-0.403-0.596c-0.195-0.176-0.462-0.265-0.799-0.265c-0.324,0-0.592,0.075-0.805,0.226
					c-0.213,0.151-0.32,0.348-0.32,0.59c0,0.235,0.103,0.436,0.309,0.601c0.206,0.165,0.533,0.325,0.982,0.48l0.496,0.165
					c0.316,0.111,0.605,0.237,0.866,0.381c0.261,0.143,0.485,0.314,0.673,0.513c0.187,0.199,0.331,0.425,0.43,0.678
					c0.099,0.254,0.149,0.546,0.149,0.877c0,0.412-0.083,0.767-0.248,1.064c-0.165,0.298-0.377,0.542-0.634,0.734
					c-0.258,0.191-0.548,0.335-0.872,0.43C287.422,440.797,287.105,440.845,286.797,440.845z"/>
			</g>
			<g>
				<path style="fill:#FFFFFF;" d="M321.394,439.168l4.004-4.985h-3.827v-1.412h5.559v1.5l-3.96,4.985h4.004v1.412h-5.779V439.168z"
					/>
				<path style="fill:#FFFFFF;" d="M328.409,432.771h1.489v7.897h-1.489V432.771z"/>
				<path style="fill:#FFFFFF;" d="M331.486,440.669v-7.897h2.779c0.375,0,0.726,0.061,1.053,0.182
					c0.327,0.121,0.612,0.292,0.855,0.513s0.434,0.483,0.574,0.789c0.14,0.305,0.209,0.642,0.209,1.009
					c0,0.375-0.07,0.715-0.209,1.02c-0.14,0.305-0.331,0.568-0.574,0.789c-0.243,0.221-0.528,0.392-0.855,0.513
					c-0.327,0.121-0.678,0.182-1.053,0.182h-1.29v2.901H331.486z M334.288,436.356c0.389,0,0.684-0.111,0.882-0.331
					c0.199-0.22,0.298-0.474,0.298-0.761c0-0.14-0.024-0.276-0.072-0.408c-0.048-0.132-0.121-0.248-0.221-0.347
					c-0.099-0.099-0.222-0.178-0.37-0.237c-0.147-0.059-0.32-0.089-0.518-0.089h-1.312v2.173H334.288z"/>
			</g>
		</g>
		<g style="opacity:0.61;">
			<path style="fill:#FFFFFF;" d="M300.133,433.27h9.067v2.242h-9.067V433.27z M300.133,437.136h9.067v2.243h-9.067V437.136z"/>
		</g>
	</g>
	<g style="opacity:0.61;">
		<path style="fill:#FFFFFF;" d="M156.756,478.878h1.607c1.263,0,2.114,0.812,2.114,1.974c0,1.161-0.851,1.973-2.114,1.973h-1.607
			V478.878z M158.34,482.464c1.049,0,1.725-0.665,1.725-1.612c0-0.947-0.677-1.613-1.725-1.613h-1.167v3.225H158.34z"/>
		<path style="fill:#FFFFFF;" d="M165.139,480.851c0-1.15,0.879-2.007,2.075-2.007c1.184,0,2.069,0.851,2.069,2.007
			c0,1.156-0.885,2.007-2.069,2.007C166.019,482.858,165.139,482.002,165.139,480.851z M168.866,480.851
			c0-0.942-0.705-1.635-1.652-1.635c-0.953,0-1.663,0.693-1.663,1.635c0,0.941,0.71,1.635,1.663,1.635
			C168.162,482.486,168.866,481.793,168.866,480.851z"/>
		<path style="fill:#FFFFFF;" d="M179.596,478.878l-1.331,3.947h-0.44l-1.156-3.366l-1.161,3.366h-0.434l-1.331-3.947h0.429
			l1.139,3.394l1.178-3.394h0.389l1.161,3.411l1.156-3.411H179.596z"/>
		<path style="fill:#FFFFFF;" d="M187.731,478.878v3.947h-0.344l-2.537-3.202v3.202h-0.417v-3.947h0.344l2.543,3.203v-3.203H187.731
			z"/>
		<path style="fill:#FFFFFF;" d="M193.093,478.878h0.417v3.586h2.21v0.361h-2.627V478.878z"/>
		<path style="fill:#FFFFFF;" d="M200.061,480.851c0-1.15,0.879-2.007,2.075-2.007c1.184,0,2.069,0.851,2.069,2.007
			c0,1.156-0.885,2.007-2.069,2.007C200.941,482.858,200.061,482.002,200.061,480.851z M203.788,480.851
			c0-0.942-0.705-1.635-1.652-1.635c-0.953,0-1.663,0.693-1.663,1.635c0,0.941,0.71,1.635,1.663,1.635
			C203.083,482.486,203.788,481.793,203.788,480.851z"/>
		<path style="fill:#FFFFFF;" d="M211.636,481.77h-2.199l-0.474,1.054h-0.434l1.804-3.947h0.412l1.804,3.947h-0.44L211.636,481.77z
			 M211.484,481.432l-0.947-2.12l-0.947,2.12H211.484z"/>
		<path style="fill:#FFFFFF;" d="M217.28,478.878h1.607c1.263,0,2.114,0.812,2.114,1.974c0,1.161-0.851,1.973-2.114,1.973h-1.607
			V478.878z M218.864,482.464c1.049,0,1.725-0.665,1.725-1.612c0-0.947-0.677-1.613-1.725-1.613h-1.167v3.225H218.864z"/>
		<path style="fill:#FFFFFF;" d="M234.041,481.77h-2.199l-0.474,1.054h-0.434l1.804-3.947h0.412l1.804,3.947h-0.44L234.041,481.77z
			 M233.889,481.432l-0.947-2.12l-0.947,2.12H233.889z"/>
		<path style="fill:#FFFFFF;" d="M239.685,478.878h0.417v3.586h2.21v0.361h-2.627V478.878z"/>
		<path style="fill:#FFFFFF;" d="M247.082,478.878h0.417v3.586h2.21v0.361h-2.627V478.878z"/>
		<path style="fill:#FFFFFF;" d="M260.449,479.239v1.551h2.041v0.361h-2.041v1.675h-0.417v-3.947h2.706v0.361H260.449z"/>
		<path style="fill:#FFFFFF;" d="M267.678,478.878h0.417v3.947h-0.417V478.878z"/>
		<path style="fill:#FFFFFF;" d="M273.456,478.878h0.417v3.586h2.21v0.361h-2.627V478.878z"/>
		<path style="fill:#FFFFFF;" d="M283.644,482.464v0.361h-2.791v-3.947h2.706v0.361h-2.289v1.404h2.041v0.355h-2.041v1.466H283.644z
			"/>
		<path style="fill:#FFFFFF;" d="M294.672,479.239v1.551h2.041v0.361h-2.041v1.675h-0.417v-3.947h2.706v0.361H294.672z"/>
		<path style="fill:#FFFFFF;" d="M301.5,480.851c0-1.15,0.879-2.007,2.075-2.007c1.184,0,2.069,0.851,2.069,2.007
			c0,1.156-0.885,2.007-2.069,2.007C302.379,482.858,301.5,482.002,301.5,480.851z M305.226,480.851
			c0-0.942-0.705-1.635-1.652-1.635c-0.953,0-1.663,0.693-1.663,1.635c0,0.941,0.71,1.635,1.663,1.635
			C304.522,482.486,305.226,481.793,305.226,480.851z"/>
		<path style="fill:#FFFFFF;" d="M313.351,482.825l-0.902-1.269c-0.102,0.011-0.203,0.017-0.316,0.017h-1.06v1.252h-0.417v-3.947
			h1.477c1.004,0,1.613,0.507,1.613,1.353c0,0.62-0.327,1.054-0.902,1.24l0.964,1.353H313.351z M313.328,480.231
			c0-0.632-0.417-0.992-1.207-0.992h-1.048v1.979h1.048C312.911,481.218,313.328,480.851,313.328,480.231z"/>
		<path style="fill:#FFFFFF;" d="M322.907,478.878v3.947h-0.4v-3.158l-1.551,2.656h-0.197l-1.551-2.639v3.14h-0.4v-3.947h0.344
			l1.714,2.926l1.697-2.926H322.907z"/>
		<path style="fill:#FFFFFF;" d="M330.744,481.77h-2.199l-0.473,1.054h-0.434l1.804-3.947h0.411l1.804,3.947h-0.44L330.744,481.77z
			 M330.592,481.432l-0.947-2.12l-0.947,2.12H330.592z"/>
		<path style="fill:#FFFFFF;" d="M336.957,479.239h-1.387v-0.361h3.192v0.361h-1.387v3.586h-0.417V479.239z"/>
		<path style="fill:#FFFFFF;" d="M343.063,482.346l0.164-0.321c0.282,0.276,0.784,0.479,1.302,0.479c0.739,0,1.06-0.31,1.06-0.699
			c0-1.083-2.43-0.417-2.43-1.877c0-0.581,0.451-1.083,1.455-1.083c0.446,0,0.908,0.13,1.224,0.35l-0.141,0.333
			c-0.338-0.22-0.733-0.327-1.083-0.327c-0.722,0-1.043,0.321-1.043,0.716c0,1.083,2.43,0.429,2.43,1.866
			c0,0.581-0.462,1.077-1.472,1.077C343.937,482.858,343.356,482.65,343.063,482.346z"/>
	</g>
</g>
<g>
</g>
<g>
	<path d="M105.936,280.499c0-3.621-0.012-6.978,0.01-10.334c0.004-0.656-0.08-1.14-0.711-1.549c-0.799-0.518-0.922-1.404-0.92-2.334
		c0.017-9.994,0.011-19.987,0.011-29.981c0-4.063,0.025-8.127-0.015-12.189c-0.012-1.207,0.318-2.085,1.561-2.415
		c0.393-0.104,0.509-0.34,0.506-0.717c-0.01-1.281-0.019-2.563,0.004-3.844c0.011-0.646-0.313-0.786-0.887-0.8
		c-0.94-0.024-2.134,0.41-2.748-0.196c-0.548-0.54-0.446-1.713-0.689-2.591c-3.694-13.37-15.041-22.562-28.895-23.416
		c-15.417-0.951-29.514,9.802-32.674,24.987c-0.224,1.076-0.64,1.283-1.626,1.252c-2.319-0.072-2.321-0.023-2.321,2.276
		c0,0.476,0.03,0.954-0.007,1.427c-0.069,0.886-0.018,1.573,1.078,1.904c0.782,0.237,0.991,1.07,0.985,1.911
		c-0.021,3.258-0.008,6.516-0.008,9.774c0,10.799-0.007,21.598,0.01,32.397c0.002,1.169-0.203,2.195-1.29,2.825
		c-0.458,0.265-0.363,0.667-0.364,1.055c-0.004,2.16-0.026,4.32,0.013,6.479c0.011,0.641-0.108,0.877-0.821,0.868
		c-3.439-0.042-6.88-0.035-10.32-0.004c-0.638,0.006-0.857-0.203-0.772-0.807c0.02-0.144,0.003-0.292,0.003-0.439
		c0-31.518,0.004-63.036-0.02-94.555c-0.001-0.954,0.177-1.261,1.215-1.26c30.264,0.033,60.529,0.032,90.793,0
		c1.032-0.001,1.219,0.297,1.218,1.257c-0.025,31.518-0.025,63.036,0.001,94.555c0.001,0.97-0.196,1.302-1.228,1.261
		c-2.192-0.088-4.391-0.001-6.586-0.041c-0.747-0.014-1.312,0.159-1.84,0.724C107.833,278.802,106.967,279.534,105.936,280.499z"/>
	<path style="fill:#C10F2F;" d="M74.83,304.478c-0.121,0.057-0.222,0.196-0.292,0.316c-0.45,0.773-0.578,1.571-0.119,2.388
		c0.464,0.828,1.206,1.145,2.118,1.052c0.914-0.092,1.485-0.562,1.507-1.342C78.036,305.733,75.665,304.094,74.83,304.478z
		 M76.228,299.109c-0.978-0.042-1.632,0.457-1.694,1.294c-0.068,0.934,1.316,2.32,2.419,2.245c0.932-0.064,0.965-0.965,1.035-1.652
		C78.104,299.886,77.381,299.161,76.228,299.109z M76.953,302.648c0.932-0.064,0.965-0.965,1.035-1.652
		c0.116-1.11-0.606-1.835-1.76-1.887c-0.978-0.042-1.632,0.457-1.694,1.294C74.466,301.336,75.85,302.723,76.953,302.648z
		 M74.83,304.478c-0.121,0.057-0.222,0.196-0.292,0.316c-0.45,0.773-0.578,1.571-0.119,2.388c0.464,0.828,1.206,1.145,2.118,1.052
		c0.914-0.092,1.485-0.562,1.507-1.342C78.036,305.733,75.665,304.094,74.83,304.478z M118.256,283.283
		c-0.033-0.778-0.147-1.07-1.013-1.057c-3.438,0.055-6.879,0.055-10.32,0.002c-0.868-0.015-1.022,0.281-1.006,1.066
		c0.048,2.377-0.013,4.759,0.035,7.136c0.015,0.826-0.261,1.077-1.07,1.061c-2.23-0.044-4.464-0.053-6.694,0.002
		c-0.907,0.022-1.107-0.325-1.09-1.162c0.048-2.377-0.015-4.759,0.035-7.136c0.018-0.782-0.218-0.967-0.978-0.962
		c-6.44,0.031-12.879,0.035-19.319-0.004c-0.872-0.007-1.019,0.288-1.004,1.068c0.048,2.377-0.013,4.759,0.033,7.136
		c0.018,0.83-0.266,1.074-1.072,1.059c-2.23-0.044-4.464-0.053-6.695,0.002c-0.912,0.024-1.103-0.334-1.085-1.164
		c0.048-2.379-0.018-4.759,0.035-7.138c0.018-0.787-0.226-0.969-0.982-0.958c-3.219,0.042-6.44,0.018-9.661,0.018
		c-3.184,0-6.367,0.026-9.551-0.018c-0.826-0.013-1.142,0.154-1.116,1.068c0.073,2.377-0.007,4.757,0.042,7.136
		c0.018,0.833-0.275,1.07-1.077,1.055c-2.195-0.044-4.39-0.048-6.585,0c-0.885,0.02-1.224-0.217-1.197-1.167
		c0.066-2.415,0.02-4.831,0.024-7.246c0-0.453,0.064-0.848-0.639-0.841c-3.55,0.029-7.099,0.02-10.649,0.004
		c-0.497-0.002-0.593,0.211-0.617,0.655c-0.231,4.183,0.525,8.149,2.553,11.844c2.999,5.464,7.444,9.54,12.545,12.95
		c8.553,5.715,18.025,9.219,28.011,11.429c1.342,0.297,2.685,0.85,4.091,0.589c5.754-1.074,11.381-2.63,16.823-4.792
		c8.079-3.208,15.63-7.283,21.734-13.635C115.617,296.266,118.557,290.448,118.256,283.283z M59.273,308.358
		c-0.057,0.54-0.578,0.319-0.899,0.323c-1.536,0.024-3.072,0.02-4.607,0.002c-0.29-0.002-0.732,0.185-0.802-0.31
		c-0.077-0.545,0.398-0.426,0.683-0.435c0.835-0.024,1.123-0.415,1.099-1.252c-0.053-1.791-0.059-3.588,0-5.378
		c0.033-1.022-0.299-1.619-1.362-1.701c-0.209-0.015-0.475,0.026-0.494-0.286c-0.024-0.36,0.25-0.387,0.519-0.404
		c1.129-0.077,2.261-0.138,3.39-0.235c0.523-0.046,0.71,0.134,0.696,0.668c-0.031,1.244-0.011,2.487-0.011,3.733
		c0,1.244,0.029,2.489-0.011,3.731c-0.022,0.736,0.259,1.079,0.995,1.127C58.77,307.963,59.336,307.745,59.273,308.358z
		 M69.735,299.733c-0.062,0.277-0.222,0.536-0.365,0.787c-1.415,2.467-2.79,4.954-4.027,7.518c-0.305,0.633-1.758,1.114-2.303,0.714
		c-0.466-0.341-0.081-0.705,0.138-1.011c1.389-1.922,2.786-3.838,4.179-5.759c0.231-0.316,0.453-0.639,0.802-1.132
		c-1.215,0-2.201,0.015-3.186-0.007c-0.997-0.022-1.929,0.026-2.248,1.235c-0.062,0.237-0.246,0.358-0.505,0.268
		c-0.226-0.077-0.191-0.277-0.198-0.453c-0.004-0.073,0.009-0.145,0.018-0.217c0.112-0.969-0.341-2.272,0.301-2.821
		c0.558-0.477,1.81-0.156,2.755-0.165c1.279-0.011,2.56,0.055,3.834-0.022C69.856,298.612,69.878,299.093,69.735,299.733z
		 M80.275,305.988c-0.094,1.277-0.87,2.054-1.962,2.551c-1.138,0.514-2.34,0.45-3.544,0.268c-1.503-0.226-2.498-0.986-2.674-2.052
		c-0.182-1.105,0.33-1.863,1.859-2.702c-1.132-0.841-1.905-1.832-1.465-3.351c0.182-0.624,0.519-1.12,1.035-1.501
		c1.382-1.017,4.093-1.041,5.504-0.053c1.307,0.918,1.285,2.452-0.053,3.337c-0.268,0.178-0.56,0.321-0.877,0.499
		c0.239,0.152,0.455,0.288,0.67,0.42C79.741,303.99,80.367,304.781,80.275,305.988z M89.531,308.317
		c-1.777,0.921-3.61,0.78-5.365-0.094c-0.868-0.433-1.114-1.268-0.852-2.158c0.218-0.747,0.863-0.938,1.588-0.822
		c1.16,0.189,1.353,1.292,0.406,2.637c1.028,0.378,1.949,0.492,2.738-0.283c0.62-0.606,0.756-2.265,0.31-3.115
		c-0.512-0.975-1.676-1.27-3.1-0.787c-1.342,0.455-1.389,0.426-1.351-1.037c0.029-1.061,0.099-2.118,0.105-3.177
		c0.004-0.584,0.171-0.826,0.817-0.809c1.681,0.048,3.364,0.009,5.044,0.024c0.343,0.002,0.973-0.169,0.727,0.518
		c-0.189,0.534,0.501,1.547-0.736,1.564c-1.353,0.02-2.707-0.004-4.06,0.013c-0.283,0.004-0.725-0.174-0.751,0.36
		c-0.031,0.576-0.079,1.167,0.018,1.727c0.031,0.189,0.453-0.015,0.681-0.073c1.05-0.266,2.092-0.27,3.137,0.015
		c1.237,0.336,2.096,1.061,2.243,2.384C91.282,306.568,90.75,307.686,89.531,308.317z M76.953,302.648
		c0.932-0.064,0.965-0.965,1.035-1.652c0.116-1.11-0.606-1.835-1.76-1.887c-0.978-0.042-1.632,0.457-1.694,1.294
		C74.466,301.336,75.85,302.723,76.953,302.648z M74.83,304.478c-0.121,0.057-0.222,0.196-0.292,0.316
		c-0.45,0.773-0.578,1.571-0.119,2.388c0.464,0.828,1.206,1.145,2.118,1.052c0.914-0.092,1.485-0.562,1.507-1.342
		C78.036,305.733,75.665,304.094,74.83,304.478z M74.83,304.478c-0.121,0.057-0.222,0.196-0.292,0.316
		c-0.45,0.773-0.578,1.571-0.119,2.388c0.464,0.828,1.206,1.145,2.118,1.052c0.914-0.092,1.485-0.562,1.507-1.342
		C78.036,305.733,75.665,304.094,74.83,304.478z M76.228,299.109c-0.978-0.042-1.632,0.457-1.694,1.294
		c-0.068,0.934,1.316,2.32,2.419,2.245c0.932-0.064,0.965-0.965,1.035-1.652C78.104,299.886,77.381,299.161,76.228,299.109z
		 M76.228,299.109c-0.978-0.042-1.632,0.457-1.694,1.294c-0.068,0.934,1.316,2.32,2.419,2.245c0.932-0.064,0.965-0.965,1.035-1.652
		C78.104,299.886,77.381,299.161,76.228,299.109z M74.83,304.478c-0.121,0.057-0.222,0.196-0.292,0.316
		c-0.45,0.773-0.578,1.571-0.119,2.388c0.464,0.828,1.206,1.145,2.118,1.052c0.914-0.092,1.485-0.562,1.507-1.342
		C78.036,305.733,75.665,304.094,74.83,304.478z"/>
	<path d="M75.85,280.497c0-3.658-0.008-7.06,0.008-10.461c0.003-0.579-0.078-0.996-0.642-1.359c-0.841-0.54-0.989-1.448-0.986-2.418
		c0.018-7.575,0.01-15.15,0.01-22.726c0-6.477-0.001-12.955,0.001-19.432c0-1.832,0.579-2.404,2.43-2.405
		c6.549-0.002,13.097-0.002,19.646,0c1.807,0.001,2.443,0.628,2.444,2.428c0.003,14.016-0.003,28.032,0.01,42.048
		c0.001,1.094-0.233,2.052-1.207,2.651c-0.477,0.293-0.45,0.686-0.448,1.125c0.005,2.086-0.036,4.173,0.021,6.257
		c0.023,0.825-0.161,1.095-1.05,1.087c-5.231-0.048-10.463-0.008-15.694-0.04c-0.792-0.005-1.377,0.184-1.926,0.777
		C77.702,278.851,76.838,279.575,75.85,280.497z"/>
	<path d="M45.839,280.336c0-2.236,0-4.232,0-6.228c0-1.025-0.022-2.05,0.006-3.074c0.028-1.058,0.121-2.067-0.994-2.77
		c-0.556-0.35-0.665-1.089-0.664-1.781c0.006-14.198,0.002-28.395,0.008-42.593c0.001-1.445,0.7-2.121,2.165-2.122
		c6.694-0.004,13.389-0.004,20.083,0c1.479,0.001,2.158,0.656,2.159,2.118c0.005,14.198,0.001,28.395,0.009,42.593
		c0.001,0.908-0.278,1.677-1.037,2.168c-0.513,0.332-0.593,0.743-0.588,1.287c0.021,2.122-0.022,4.245,0.025,6.366
		c0.016,0.721-0.186,0.917-0.91,0.913c-5.304-0.031-10.608-0.003-15.912-0.032c-0.752-0.004-1.307,0.186-1.826,0.744
		C47.627,278.717,46.804,279.423,45.839,280.336z"/>
	<path style="fill:#C10F2F;" d="M343.999,279.284c-4.572-5.831-8.07-12.345-11.899-18.651c-0.472-0.78-0.248-1.013,0.492-1.371
		c3.115-1.512,5.614-3.678,6.912-7c0.609-1.556,0.732-3.186,0.773-4.842c0.13-5.051-1.83-8.94-6.314-11.401
		c-3.177-1.742-6.699-2.026-10.21-2.074c-6.804-0.092-13.611-0.048-20.417-0.053c-0.301,0-0.633-0.105-0.962,0.138
		c1.784,1.4,2.722,3.276,3.302,5.35c0.466,1.661,0.674,3.373,0.679,5.095c0.018,8.894,0.064,17.79-0.018,26.684
		c-0.037,4.15-0.67,8.173-4.333,11.117h19.323c-2.248-1.602-3.302-3.7-3.849-6.062c-1.055-4.55-0.404-9.186-0.573-13.782
		c-0.02-0.514,0.336-0.442,0.664-0.468c2.21-0.176,3.81,0.758,4.871,2.674c2.054,3.704,4.098,7.415,6.156,11.115
		c2.355,4.232,5.824,6.741,10.77,7.031c2.549,0.149,5.084,0.152,7.804-0.053C345.983,281.517,344.924,280.464,343.999,279.284z
		 M328.633,250.964c-0.962,4.317-3.77,6.765-8.184,7.059c-1.151,0.079-2.612,0.529-3.366-0.174c-0.54-0.503-0.169-2.002-0.176-3.056
		c-0.013-2.087-0.004-4.172-0.002-6.259c0-2.746-0.022-5.491,0.009-8.237c0.02-1.839,0.468-2.283,2.32-2.483
		c4.884-0.527,8.399,2.039,9.386,6.84C329.052,246.759,329.103,248.859,328.633,250.964z"/>
	<path style="fill:#C10F2F;" d="M282.538,234.604c-6.152-2.331-12.473-2.439-18.745-0.672c-9.729,2.742-16.091,9.048-18.122,18.998
		c-2.026,9.937,0.861,18.513,8.914,24.921c6.264,4.985,13.578,6.367,21.402,5.266c13.374-1.881,22.322-12.113,22.322-25.455
		C298.309,247.069,292.381,238.335,282.538,234.604z M283.911,271.397c-4.583,10.438-15.654,9.847-21.325,2.698
		c-2.705-3.414-4.15-7.351-4.809-11.598c-0.822-5.306-0.635-10.557,1.171-15.672c1.055-2.984,2.656-5.625,5.19-7.582
		c5.319-4.113,12.917-2.806,17.227,2.935c2.619,3.489,3.783,7.529,4.377,11.772c0.255,1.813,0.36,3.636,0.336,5.28
		C286.119,263.549,285.587,267.583,283.911,271.397z"/>
	<path style="fill:#C10F2F;" d="M393.361,246.648c-1.447-2.336-3.108-4.444-5.236-6.146c-6.503-5.2-15.705-4.711-21.717,1.087
		c-3.799,3.664-5.624,8.208-6.057,13.369c-0.465,5.542,0.215,10.911,3.095,15.772c3.674,6.203,9.21,9.065,16.408,8.615
		c3.101-0.194,4.282-1.529,4.284-4.642c0.002-3.551-0.007-7.102,0.003-10.654c0.01-3.413-1.205-6.186-4.299-8.153
		c6.068,0,11.988,0,18.068,0c-2.471,1.526-2.943,3.894-2.961,6.395c-0.043,5.821-0.028,11.642,0.003,17.463
		c0.004,0.764-0.194,1.037-0.978,1.213c-5.137,1.152-10.266,2.419-15.558,2.474c-8.704,0.09-16.89-1.594-23.506-7.806
		c-3.91-3.671-6.058-8.293-6.677-13.587c-0.784-6.708,0.406-12.981,4.598-18.448c3.603-4.699,8.482-7.523,14.056-9.246
		c6.826-2.111,13.701-1.861,20.591-0.352c1.712,0.375,3.411,0.808,5.127,1.16c0.579,0.119,0.772,0.351,0.768,0.944
		C393.348,239.62,393.361,243.134,393.361,246.648z"/>
	<path style="fill:#C10F2F;" d="M179.072,255.869c6.178,0,12.073,0,18.177,0c-2.606,1.641-3.002,4.109-3.021,6.68
		c-0.041,5.674-0.032,11.349,0.007,17.024c0.006,0.87-0.173,1.238-1.11,1.442c-5.108,1.114-10.202,2.377-15.457,2.431
		c-8.305,0.086-16.162-1.471-22.686-7.1c-4.568-3.941-6.981-9.042-7.536-14.996c-0.592-6.357,0.59-12.318,4.511-17.521
		c4.034-5.353,9.592-8.302,15.955-9.944c6.276-1.62,12.539-1.23,18.795,0.103c1.749,0.373,3.487,0.802,5.233,1.193
		c0.374,0.084,0.707,0.135,0.705,0.647c-0.01,3.604-0.005,7.208-0.005,11.151c-1.2-2.187-2.44-3.931-4.008-5.412
		c-7.677-7.252-19.387-5.886-25.44,2.959c-3.05,4.456-3.901,9.473-3.635,14.731c0.23,4.555,1.313,8.88,3.926,12.716
		c3.74,5.49,10.779,8.51,16.772,7.191c2.123-0.467,3.122-1.563,3.148-3.725c0.049-4.135,0.113-8.275-0.022-12.407
		C183.285,260.052,181.919,257.638,179.072,255.869z"/>
	<path style="fill:#C10F2F;" d="M202.454,233.886c0.553,0,0.871,0,1.189,0c11.269,0,22.538,0.011,33.806-0.021
		c0.886-0.002,1.168,0.172,1.152,1.116c-0.062,3.682-0.025,7.366-0.025,11.384c-0.635-1.294-1.117-2.291-1.61-3.281
		c-1.645-3.302-4.352-4.928-8.002-4.98c-3.329-0.047-6.658-0.049-9.987-0.033c-1.268,0.006-1.513,0.296-1.515,1.595
		c-0.008,4.904-0.007,9.808,0.005,14.712c0.001,0.342-0.226,0.868,0.485,0.851c3.905-0.09,7.829,0.263,11.707-0.465
		c1.506-0.283,2.854-0.855,3.794-2.427c0,3.502,0,6.8,0,10.19c-1.98-2.634-4.892-2.458-7.655-2.581
		c-2.483-0.11-4.975,0.007-7.462-0.042c-0.753-0.015-0.895,0.251-0.89,0.935c0.028,4.062-0.015,8.125,0.022,12.187
		c0.037,4.068,0.911,4.923,4.979,5.01c2.74,0.059,5.48,0.152,8.193-0.417c2.198-0.461,4.007-1.449,5.33-3.337
		c1.189-1.698,2.298-3.44,3.486-5.225c0,1.219,0,2.437,0,3.656c0,2.891-0.016,5.783,0.012,8.674c0.007,0.665-0.103,0.96-0.881,0.959
		c-12.071-0.025-24.143-0.018-36.411-0.018c0.485-0.447,0.885-0.772,1.234-1.145c2.171-2.32,2.901-5.214,3.041-8.251
		c0.14-3.031,0.064-6.073,0.062-9.11c-0.004-6.953,0.038-13.907-0.057-20.859C206.403,239.168,205.015,236.194,202.454,233.886z"/>
	<path d="M97.94,216.274c-17.66,0-35.313,0-52.972,0c2.118-11.257,12.293-21.191,25.602-21.592
		C84.937,194.248,95.742,204.695,97.94,216.274z"/>
	<path style="fill:#C10F2F;" d="M468.16,272.245c-4.368-11.533-8.742-23.063-13.114-34.593c-0.466-1.226-0.617-2.872-1.505-3.553
		c-0.949-0.729-2.612-0.112-3.953-0.228c-0.868-0.077-1.25,0.226-1.584,1.046c-4.994,12.225-10.003,24.44-15.07,36.634
		c-1.709,4.115-3.851,7.967-7.694,10.553c-0.024,0.018,0.011,0.127,0.015,0.176h12.932c-1.712-1.602-2.061-2.665-1.61-5.02
		c0.576-3.003,2.023-5.693,3.082-8.522c0.167-0.444,0.497-0.358,0.806-0.358c4.645-0.004,9.291,0.004,13.936-0.015
		c0.525-0.002,0.762,0.163,0.934,0.67c0.598,1.762,1.197,3.526,1.907,5.244c1.175,2.845,0.866,5.42-1.173,7.758
		c-0.033,0.037-0.004,0.127-0.004,0.244H475C471.25,279.928,469.635,276.138,468.16,272.245z M441.828,263.479
		c2.035-4.908,4.04-9.744,6.101-14.714c0.16,0.341,0.253,0.499,0.314,0.668c1.683,4.653,3.364,9.309,5.075,14.046H441.828z"/>
	<path style="fill:#C10F2F;" d="M403.673,233.936c6.233,0,12.327,0,18.539,0c-3.617,3.255-3.991,7.548-3.997,11.949
		c-0.011,8.347-0.009,16.694,0.002,25.042c0.002,1.611,0.129,3.22,0.48,4.794c0.566,2.541,1.591,4.836,3.942,6.552
		c-6.532,0-12.837,0-19.363,0c2.462-1.805,3.483-4.276,4.025-7.006c0.257-1.296,0.366-2.609,0.366-3.928
		c-0.006-9.225,0.031-18.451-0.056-27.676C407.576,240.007,406.673,236.585,403.673,233.936z"/>
	<path d="M305.489,219.989c-1.487-0.147-1.782-0.486-1.991-1.971c-0.143-1.013-0.257-2.028-0.38-3.043
		c-0.222-1.83-1.206-3.014-2.988-3.496c-0.657-0.178-1.334-0.281-2.002-0.42c1.024-0.358,1.995-0.655,2.909-1.129
		c1.698-0.883,2.502-2.316,2.456-4.19c-0.046-1.852-0.989-3.164-2.658-3.953c-1.035-0.488-2.127-0.76-3.265-0.857
		c-4.234-0.36-8.476-0.101-12.715-0.18c-0.475-0.009-0.929-0.11-0.921,0.672c0.007,0.655,0.16,0.844,0.837,0.894
		c1.72,0.13,1.861,0.343,1.861,2.114v13.497c0,1.749-0.143,1.955-1.896,2.067c-0.71,0.046-0.793,0.31-0.798,0.918
		c-0.007,0.699,0.391,0.637,0.846,0.637c3.034-0.007,6.071,0.002,9.105-0.011c0.42-0.002,0.969,0.233,1-0.593
		c0.026-0.701-0.189-0.927-0.888-0.982c-0.82-0.062-1.621-0.31-1.621-1.397c0-2.013-0.004-4.025,0.002-6.035
		c0.002-0.233-0.081-0.479,0.281-0.611c2.144-0.771,4.33,0.624,4.5,2.902c0.083,1.129,0.152,2.261,0.242,3.39
		c0.163,1.986,0.855,2.788,2.81,3.208c1.736,0.374,3.496,0.149,5.244,0.169c0.538,0.007,0.778-0.138,0.776-0.74
		C306.233,220.277,306.124,220.053,305.489,219.989z M297.32,208.536c-0.283,1.153-1.182,1.599-2.256,1.791
		c-2.564,0.455-2.685,0.356-2.685-2.19v-1.758c0-1.096,0.007-2.195-0.002-3.293c-0.002-0.387-0.02-0.738,0.54-0.725
		c0.914,0.018,1.826,0.007,2.705,0.321c0.894,0.321,1.481,0.94,1.727,1.839C297.713,205.856,297.645,207.207,297.32,208.536z"/>
	<path d="M428.74,200.277c-6.492-0.029-10.739,4.271-10.783,10.911c-0.044,6.675,4.089,10.838,10.753,10.836
		c6.521-0.002,10.728-4.291,10.733-10.939C439.445,204.461,435.332,200.304,428.74,200.277z M433.192,212.366
		c-0.033,1.602-0.099,3.21-0.521,4.779c-0.58,2.158-1.674,3.159-3.572,3.23c-2.234,0.083-3.493-0.811-4.212-3.03
		c-0.664-2.045-0.672-4.166-0.672-6.286c-0.002-2.01,0.02-4.018,0.547-5.978c0.565-2.1,1.716-3.091,3.647-3.155
		c2.061-0.066,3.388,0.872,4.067,2.957C433.271,207.317,433.242,209.848,433.192,212.366z"/>
	<path d="M187.069,206.973c-0.173,3.533-0.42,7.032-0.108,10.522c0.126,1.411,1.043,2.241,2.43,2.414
		c0.779,0.097,0.906,0.458,0.849,1.138c-0.073,0.863-0.701,0.476-1.068,0.482c-2.268,0.037-4.537,0.013-6.806,0.024
		c-0.424,0.002-0.741-0.056-0.665-0.585c0.055-0.378-0.2-0.798,0.5-0.988c2.098-0.57,2.631-1.163,2.684-3.392
		c0.093-3.914,0.06-7.833,0.014-11.748c-0.017-1.48-0.793-2.292-2.397-2.497c-0.78-0.1-0.827-0.434-0.816-1.046
		c0.014-0.766,0.555-0.533,0.935-0.536c1.939-0.018,3.879,0.019,5.818-0.024c0.62-0.014,0.986,0.209,1.36,0.678
		c3.19,4.005,6.405,7.989,9.614,11.978c0.243,0.302,0.497,0.594,0.914,1.09c-0.051-3.182,0.183-6.128-0.14-9.06
		c-0.212-1.924-0.899-2.644-2.777-3.011c-0.787-0.154-0.867-0.516-0.828-1.17c0.048-0.792,0.618-0.472,0.968-0.476
		c2.268-0.027,4.537-0.017,6.806-0.011c0.369,0.001,0.853-0.159,0.81,0.53c-0.031,0.49,0.111,0.932-0.644,1.112
		c-1.67,0.399-2.207,1.016-2.234,2.765c-0.079,5.085-0.104,10.171-0.062,15.256c0.009,1.082-0.301,1.26-1.324,1.327
		c-1.487,0.097-2.377-0.448-3.272-1.597C194.17,215.71,190.599,211.358,187.069,206.973z"/>
	<path d="M266.304,221.548c-2.928,0-5.856-0.008-8.784,0.007c-0.532,0.003-0.894-0.007-0.888-0.725
		c0.005-0.621,0.197-0.779,0.795-0.827c1.766-0.141,1.864-0.286,1.864-2.078c0-4.576,0.001-9.152,0-13.729
		c0-1.525-0.126-1.704-1.622-1.863c-0.629-0.067-1.096-0.06-1.039-0.944c0.064-0.999,0.748-0.619,1.189-0.621
		c5.49-0.023,10.98,0,16.469-0.033c0.771-0.005,0.979,0.21,0.983,0.975c0.009,1.863,0.145,3.726,0.181,5.59
		c0.007,0.347,0.333,0.987-0.444,0.984c-0.587-0.002-1.335,0.334-1.547-0.673c-0.111-0.527-0.386-1.021-0.598-1.525
		c-1.085-2.579-2.98-3.848-5.824-3.735c-1.925,0.076-1.928,0.014-1.928,1.939c0,1.757,0.028,3.515-0.015,5.271
		c-0.015,0.6,0.195,0.704,0.742,0.725c1.581,0.061,2.523-0.732,3.124-2.107c0.15-0.343,0.16-0.806,0.613-0.968
		c0.815-0.292,1.28,0.04,1.281,0.928c0.004,2.05,0.007,4.1-0.006,6.15c-0.002,0.279,0.18,0.762-0.387,0.689
		c-0.417-0.054-0.961,0.326-1.24-0.329c-0.199-0.469-0.437-0.922-0.682-1.37c-0.65-1.186-1.72-1.471-2.979-1.41
		c-0.433,0.021-0.455,0.224-0.455,0.55c0.006,2.306,0.008,4.613-0.001,6.919c-0.001,0.374,0.035,0.613,0.515,0.605
		c1.17-0.019,2.345,0.035,3.499-0.2c1.851-0.377,3.143-1.5,3.988-3.145c0.432-0.841,0.801-1.718,1.153-2.597
		c0.133-0.332,0.227-0.533,0.655-0.562c1.263-0.086,1.332-0.052,1.284,1.238c-0.073,1.973-0.167,3.945-0.218,5.919
		c-0.018,0.703-0.22,0.988-1.007,0.973C272.087,221.515,269.195,221.548,266.304,221.548z"/>
	<path d="M155.31,209.394c0-1.72,0-3.44,0-5.161c0-1.568-0.141-1.788-1.693-1.902c-0.725-0.053-1.003-0.2-0.966-0.988
		c0.045-0.947,0.696-0.572,1.099-0.575c3-0.029,6-0.018,9.001-0.014c0.415,0.001,0.907-0.145,0.882,0.596
		c-0.018,0.553-0.004,0.894-0.756,0.988c-1.635,0.205-1.744,0.414-1.744,2.033c-0.001,3.367,0.026,6.735-0.007,10.102
		c-0.046,4.693,3.348,5.576,6.407,4.93c1.768-0.373,2.949-1.766,3.147-3.769c0.335-3.389,0.313-6.794,0.029-10.185
		c-0.159-1.894-0.892-2.689-2.734-3.036c-0.813-0.153-0.849-0.549-0.813-1.182c0.044-0.794,0.629-0.459,0.975-0.464
		c2.268-0.03,4.537-0.02,6.805-0.01c0.361,0.002,0.859-0.178,0.834,0.512c-0.018,0.495,0.106,0.939-0.633,1.133
		c-1.706,0.448-2.219,1.106-2.252,2.88c-0.057,3.073,0.004,6.149-0.061,9.221c-0.058,2.781-0.86,5.311-3.593,6.529
		c-3.597,1.603-7.286,1.448-10.787-0.348c-2.237-1.148-2.992-3.317-3.097-5.693c-0.082-1.863-0.016-3.732-0.016-5.598
		C155.327,209.394,155.318,209.394,155.31,209.394z"/>
	<path d="M454.511,200.753c2.818,0,5.636,0.02,8.454-0.015c0.666-0.008,0.886,0.16,0.869,0.853c-0.047,1.976-0.015,3.953-0.017,5.93
		c0,0.354,0.085,0.85-0.479,0.75c-0.497-0.088-1.176,0.471-1.49-0.405c-0.356-0.995-0.77-1.969-1.353-2.86
		c-1.329-2.035-4.083-3.154-6.423-2.648c-0.409,0.088-0.426,0.314-0.426,0.619c0,2.306,0.012,4.613-0.009,6.919
		c-0.005,0.532,0.185,0.68,0.703,0.682c1.496,0.005,2.61-0.525,3.201-1.986c0.158-0.39,0.214-0.907,0.91-0.907
		c0.722,0,1.022,0.135,0.995,0.945c-0.062,1.902-0.006,3.807-0.033,5.71c-0.005,0.326,0.288,0.899-0.419,0.902
		c-0.508,0.002-1.085,0.214-1.339-0.571c-0.186-0.577-0.538-1.116-0.893-1.618c-0.684-0.966-1.737-0.957-2.773-0.939
		c-0.386,0.007-0.342,0.3-0.342,0.55c0,2.05-0.011,4.1,0.011,6.15c0.015,1.317,1.051,1.177,1.899,1.245
		c0.518,0.042,1.018-0.053,0.966,0.774c-0.037,0.584-0.216,0.732-0.777,0.728c-3.257-0.023-6.514-0.017-9.771-0.005
		c-0.488,0.002-0.846,0.003-0.804-0.668c0.031-0.512-0.009-0.835,0.706-0.881c1.898-0.122,1.983-0.27,1.983-2.186
		c0-4.466,0-8.932,0-13.398c0-1.775-0.132-1.972-1.851-2.106c-0.644-0.05-0.847-0.192-0.85-0.873
		c-0.003-0.761,0.402-0.694,0.899-0.692C448.875,200.757,451.693,200.753,454.511,200.753z"/>
	<path d="M364.069,200.753c3.001,0,6.001,0.02,9.002-0.015c0.669-0.008,0.877,0.167,0.874,0.851
		c-0.008,1.938,0.074,3.875,0.098,5.813c0.004,0.315,0.26,0.866-0.32,0.857c-0.53-0.008-1.242,0.446-1.578-0.451
		c-0.475-1.266-1.059-2.487-1.864-3.582c-0.64-0.87-1.397-1.582-2.52-1.799c-0.576-0.111-0.875-0.047-0.872,0.664
		c0.022,5.124,0.003,10.249,0.019,15.373c0.004,1.184,0.398,1.469,2.244,1.545c0.682,0.028,0.985,0.169,0.914,0.916
		c-0.044,0.466-0.168,0.632-0.643,0.63c-3.623-0.014-7.245-0.02-10.868,0.004c-0.638,0.004-0.588-0.357-0.591-0.773
		c-0.003-0.416-0.048-0.711,0.582-0.763c2.573-0.215,2.57-0.248,2.57-2.77c0-4.649-0.026-9.298,0.022-13.946
		c0.01-0.931-0.306-1.067-1.078-0.837c-0.919,0.274-1.592,0.866-2.159,1.605c-0.851,1.111-1.489,2.352-1.97,3.649
		c-0.339,0.914-0.998,0.548-1.537,0.55c-0.749,0.003-0.439-0.639-0.436-0.998c0.015-1.901,0.117-3.802,0.109-5.702
		c-0.003-0.711,0.249-0.841,0.891-0.834C357.995,200.769,361.032,200.753,364.069,200.753z"/>
	<path d="M241.979,216.893c0.997-2.834,1.953-5.539,2.9-8.247c0.445-1.272,0.916-2.538,1.296-3.83
		c0.429-1.455,0.075-1.962-1.408-2.365c-0.389-0.105-0.99,0.071-1.011-0.699c-0.018-0.691,0.057-1.049,0.912-1.022
		c2.119,0.068,4.242,0.018,6.363,0.026c0.334,0.001,0.813-0.146,0.782,0.452c-0.022,0.423,0.273,1.014-0.444,1.162
		c-1.488,0.307-2.115,1.424-2.601,2.697c-1.99,5.21-4.008,10.41-5.956,15.636c-0.296,0.793-0.654,1.092-1.48,1.006
		c-1.153-0.12-2.577,0.442-3.401-0.225c-0.763-0.617-0.924-1.995-1.32-3.049c-1.707-4.536-3.433-9.066-5.085-13.622
		c-0.482-1.328-1.222-2.231-2.659-2.404c-0.847-0.102-0.644-0.704-0.644-1.212c0-0.72,0.566-0.428,0.888-0.43
		c3.365-0.021,6.729-0.016,10.094-0.008c0.393,0.001,0.906-0.198,0.889,0.57c-0.013,0.608-0.011,1.062-0.828,1.002
		c-0.387-0.028-0.797,0.101-1.18,0.215c-0.756,0.226-1.064,0.695-0.78,1.5c1.455,4.123,2.896,8.252,4.348,12.376
		C241.698,216.545,241.807,216.647,241.979,216.893z"/>
	<path d="M312.986,218.278c0-0.914-0.03-1.83,0.016-2.743c0.016-0.325-0.311-0.929,0.374-0.921c0.55,0.007,1.216-0.337,1.607,0.49
		c0.674,1.424,1.536,2.739,2.719,3.812c1.196,1.084,2.56,1.662,4.206,1.401c1.263-0.2,2.247-1.049,2.487-2.155
		c0.312-1.442-0.121-2.543-1.332-3.312c-0.871-0.553-1.851-0.857-2.829-1.148c-1.261-0.374-2.506-0.782-3.677-1.391
		c-2.221-1.154-3.578-2.874-3.454-5.485c0.131-2.763,1.41-4.803,4.005-5.882c2.338-0.972,4.713-0.851,7.054,0.012
		c0.554,0.204,0.942,0.284,1.25-0.326c0.376-0.744,1.097-0.492,1.662-0.432c0.678,0.072,0.343,0.702,0.353,1.072
		c0.04,1.462,0.04,2.926,0,4.389c-0.01,0.368,0.326,1-0.358,1.068c-0.636,0.064-1.368,0.288-1.778-0.61
		c-0.534-1.17-1.328-2.18-2.295-3.04c-0.728-0.648-1.563-1.071-2.548-1.146c-1.432-0.109-2.586,0.645-2.961,1.92
		c-0.393,1.338,0.09,2.514,1.349,3.249c1.048,0.612,2.22,0.906,3.354,1.298c0.859,0.298,1.738,0.564,2.556,0.953
		c4.055,1.932,4.968,7.095,1.861,10.383c-2.098,2.22-4.785,2.451-7.591,2.224c-0.76-0.061-1.527-0.205-2.257-0.425
		c-0.763-0.229-1.417-0.619-2.001,0.386c-0.29,0.498-1.04,0.262-1.539,0.164c-0.459-0.09-0.209-0.624-0.221-0.953
		C312.964,220.181,312.986,219.23,312.986,218.278z"/>
	<path d="M393.315,210.578c1.227-2.088,2.447-4.032,3.528-6.05c0.654-1.22,0.315-1.729-1.059-2.131
		c-0.362-0.106-0.897,0.023-0.872-0.702c0.023-0.646,0.08-0.985,0.877-0.962c2.048,0.06,4.098,0.015,6.147,0.025
		c0.367,0.002,0.858-0.16,0.835,0.521c-0.017,0.498,0.116,1.009-0.64,1.134c-1.082,0.178-1.83,0.9-2.403,1.774
		c-1.682,2.566-3.333,5.152-4.995,7.731c-0.16,0.249-0.245,0.511-0.244,0.82c0.011,1.94,0.017,3.88,0.002,5.82
		c-0.011,1.433,1.086,1.395,1.997,1.44c0.715,0.035,0.837,0.301,0.804,0.924c-0.025,0.467-0.157,0.637-0.636,0.635
		c-3.33-0.015-6.66-0.019-9.991,0.003c-0.555,0.004-0.687-0.214-0.673-0.71c0.013-0.463-0.017-0.78,0.65-0.842
		c2.086-0.193,1.948-0.276,2.141-2.327c0.305-3.244-0.448-6.077-2.399-8.693c-1.107-1.486-1.964-3.162-2.895-4.774
		c-0.584-1.011-1.36-1.732-2.552-1.836c-0.726-0.063-0.719-0.484-0.733-1.036c-0.018-0.75,0.485-0.585,0.892-0.586
		c3.257-0.006,6.514-0.001,9.771-0.006c0.45-0.001,0.868-0.073,0.863,0.629c-0.004,0.599-0.078,0.876-0.796,0.957
		c-1.754,0.199-1.886,0.534-1.037,2.074C391.006,206.416,392.118,208.418,393.315,210.578z"/>
	<path d="M213.981,211.159c0-2.303,0.003-4.607-0.001-6.91c-0.003-1.546-0.167-1.768-1.708-1.921
		c-0.638-0.064-1.075-0.05-1.029-0.932c0.053-1.008,0.734-0.623,1.17-0.627c3.07-0.03,6.141-0.014,9.211-0.018
		c0.474-0.001,0.926-0.111,0.912,0.673c-0.012,0.647-0.151,0.842-0.828,0.892c-1.801,0.134-1.942,0.342-1.942,2.151
		c0,4.461,0,8.921,0,13.382c0,1.819,0.155,2.036,1.93,2.151c0.651,0.042,0.841,0.195,0.842,0.871
		c0.002,0.772-0.424,0.681-0.908,0.68c-3.18-0.006-6.36-0.006-9.54,0.001c-0.46,0.001-0.845,0.051-0.84-0.642
		c0.004-0.614,0.095-0.87,0.802-0.915c1.787-0.113,1.928-0.323,1.929-2.144C213.982,215.62,213.981,213.39,213.981,211.159z"/>
	<path d="M340.86,200.753c1.608,0,3.216,0.012,4.824-0.008c0.471-0.006,0.772,0.054,0.727,0.637
		c-0.036,0.466,0.096,0.867-0.665,0.935c-2.009,0.181-2.017,0.249-2.017,2.267c0,4.46,0,8.921,0,13.381
		c0,1.7,0.137,1.904,1.802,2.027c0.685,0.051,0.912,0.222,0.895,0.938c-0.019,0.823-0.546,0.612-0.972,0.613
		c-3.143,0.009-6.286,0-9.429,0.011c-0.507,0.002-0.882,0.045-0.891-0.701c-0.009-0.711,0.245-0.808,0.862-0.851
		c1.766-0.125,1.912-0.317,1.912-2.044c0.001-4.497,0-8.994,0-13.49c0-1.813-0.147-2.023-1.927-2.154
		c-0.65-0.048-0.841-0.201-0.845-0.875c-0.005-0.763,0.405-0.693,0.899-0.69C337.644,200.759,339.252,200.753,340.86,200.753z"/>
	<path style="fill:#FEFEFE;" d="M78.045,306.893c-0.022,0.78-0.593,1.25-1.507,1.342c-0.912,0.092-1.654-0.224-2.118-1.052
		c-0.459-0.817-0.332-1.615,0.119-2.388c0.07-0.121,0.171-0.259,0.292-0.316C75.665,304.094,78.036,305.733,78.045,306.893z"/>
	<path style="fill:#FEFEFE;" d="M74.534,300.403c0.062-0.837,0.716-1.336,1.694-1.294c1.153,0.053,1.876,0.778,1.76,1.887
		c-0.07,0.688-0.103,1.589-1.035,1.652C75.85,302.723,74.466,301.336,74.534,300.403z"/>
	<path style="fill:#C11030;" d="M78.045,306.893c-0.022,0.78-0.593,1.25-1.507,1.342c-0.912,0.092-1.654-0.224-2.118-1.052
		c-0.459-0.817-0.332-1.615,0.119-2.388c0.07-0.121,0.171-0.259,0.292-0.316C75.665,304.094,78.036,305.733,78.045,306.893z"/>
	<path style="fill:#C21131;" d="M77.987,300.996c-0.07,0.688-0.103,1.589-1.035,1.652c-1.103,0.075-2.487-1.312-2.419-2.245
		c0.062-0.837,0.716-1.336,1.694-1.294C77.381,299.161,78.104,299.886,77.987,300.996z"/>
</g>
</svg>
